<svg width="20" height="20" viewBox="0 0 20 20" fill="none" xmlns="http://www.w3.org/2000/svg">
<path d="M0.289216 6.58703C0.279399 6.60421 0.269582 6.62385 0.259765 6.64348L0.289216 6.58703ZM0.289216 6.58703C0.293828 6.57781 0.299403 6.56954 0.304735 6.56164C0.307919 6.55692 0.311016 6.55234 0.313769 6.54775L0.289216 6.58703ZM19.7572 6.68059L19.7572 6.68051C19.7536 6.66959 19.7486 6.66003 19.7432 6.64977C19.7414 6.64624 19.7395 6.64263 19.7376 6.63884C19.7327 6.62903 19.7278 6.61983 19.7229 6.61062C19.718 6.60141 19.7131 6.5922 19.7081 6.58237L19.7082 6.58241C19.7062 6.57912 19.7042 6.57566 19.7022 6.57213C19.6967 6.56243 19.6908 6.55216 19.6836 6.54318L19.6836 6.54315C19.664 6.5137 19.6419 6.48426 19.6198 6.4548C19.6075 6.44007 19.5928 6.4229 19.5781 6.40819L19.5781 6.40814C19.5683 6.39592 19.5561 6.38613 19.5438 6.37631L19.5437 6.37627C19.5335 6.36607 19.5222 6.35707 19.5113 6.34841C19.5064 6.34457 19.5017 6.3408 19.4971 6.33701L19.4971 6.33699L19.7572 6.68059ZM19.7572 6.68059C19.7621 6.69037 19.7658 6.70077 19.7692 6.7112C19.7725 6.7216 19.7756 6.73204 19.7793 6.74186L19.7572 6.68059ZM19.4432 6.2978L19.4431 6.29777L10.4688 0.323879C10.3304 0.231462 10.1678 0.182138 10.0014 0.182138C9.83498 0.182138 9.67232 0.231462 9.53395 0.323879L0.554704 6.30267L0.554646 6.30271L0.554644 6.30271C0.552242 6.30391 0.549829 6.30572 0.547363 6.30757L0.547334 6.30759C0.544898 6.30942 0.542411 6.31128 0.539912 6.31253L0.540001 6.31247C0.527729 6.32229 0.515437 6.33213 0.500686 6.34196L0.500701 6.34195C0.48948 6.34996 0.479333 6.35901 0.46952 6.36775C0.464317 6.37239 0.459207 6.37694 0.454082 6.38121L0.454073 6.38122C0.447963 6.38611 0.44246 6.39161 0.436932 6.39714L0.436922 6.39715C0.431404 6.40266 0.425861 6.40821 0.419699 6.41314L0.419745 6.4131C0.405007 6.42783 0.390308 6.44253 0.378063 6.45968L0.378025 6.45973L0.378022 6.45973C0.353505 6.4867 0.333884 6.51612 0.314248 6.54803C0.311486 6.55264 0.308377 6.55724 0.305191 6.56196C0.304119 6.56355 0.303037 6.56516 0.301957 6.56678C0.297664 6.57322 0.293382 6.57995 0.289715 6.58728L0.289701 6.58731C0.279893 6.60447 0.270083 6.62409 0.260265 6.64373L0.260251 6.64375L0.260232 6.64379C0.256568 6.6499 0.253511 6.65662 0.250442 6.66368C0.249899 6.66493 0.249355 6.66619 0.248808 6.66746C0.246267 6.67334 0.243645 6.67942 0.240608 6.68549L0.240109 6.68525L0.240631 6.68544C0.236951 6.69526 0.23327 6.70568 0.229587 6.71612L0.229586 6.71612C0.225903 6.72656 0.222218 6.737 0.218533 6.74683L0.218011 6.74663L0.21854 6.74681C0.217533 6.74983 0.216528 6.75274 0.215544 6.75559C0.21172 6.76667 0.20823 6.77679 0.206284 6.78846L0.206279 6.78849H0.206278C0.20137 6.81058 0.196462 6.83512 0.191552 6.85967L0.191549 6.85969L0.184189 6.89648C0.179281 6.93329 0.176828 6.97009 0.176828 7.0069V12.9857C0.176828 13.0225 0.17928 13.0593 0.184186 13.0961C0.184187 13.0961 0.184188 13.0961 0.184189 13.0961L0.191548 13.1329L0.191549 13.1329L0.206263 13.204C0.206267 13.2041 0.20627 13.2041 0.206274 13.2041C0.208729 13.2114 0.210572 13.2182 0.212411 13.2249C0.214252 13.2317 0.21609 13.2384 0.21854 13.2458C0.225902 13.2679 0.233265 13.2875 0.240631 13.3071L0.240639 13.3072C0.244279 13.3181 0.249268 13.3276 0.254628 13.3379C0.256472 13.3414 0.258359 13.3451 0.260251 13.3488C0.262752 13.3538 0.265092 13.3587 0.267392 13.3634C0.27414 13.3774 0.280548 13.3906 0.289689 13.4053L0.289695 13.4053C0.291669 13.4086 0.293639 13.412 0.295651 13.4156C0.301177 13.4253 0.307029 13.4355 0.314205 13.4445L0.314224 13.4445C0.318337 13.4503 0.322166 13.456 0.32599 13.4618C0.333617 13.4732 0.341223 13.4846 0.351024 13.496L0.351036 13.4961L0.380493 13.5329C0.392768 13.5476 0.407486 13.5648 0.4222 13.5795L0.422244 13.5795C0.432017 13.5918 0.444244 13.6015 0.456529 13.6114L0.456577 13.6114C0.466765 13.6216 0.478115 13.6306 0.489041 13.6393C0.493884 13.6431 0.498643 13.6469 0.503181 13.6507L19.4432 6.2978ZM19.4432 6.2978C19.4456 6.299 19.448 6.30081 19.4505 6.30266L19.4505 6.30268C19.4529 6.3045 19.4554 6.30635 19.4579 6.3076L19.4432 6.2978ZM19.6914 13.4448C19.6942 13.4403 19.6973 13.4357 19.7005 13.4309C19.7058 13.423 19.7114 13.4148 19.716 13.4056C19.7209 13.3957 19.7258 13.3865 19.7307 13.3773C19.7357 13.3681 19.7406 13.3589 19.7455 13.3491C19.7498 13.3419 19.7533 13.3338 19.7569 13.3254C19.7595 13.3195 19.7621 13.3134 19.7651 13.3073L19.7646 13.3071C19.7683 13.2973 19.7719 13.2869 19.7756 13.2765C19.7793 13.266 19.783 13.2556 19.7867 13.2458C19.7916 13.2335 19.7965 13.2188 19.7989 13.2041L19.7989 13.204C19.804 13.189 19.8067 13.1727 19.8095 13.1561C19.8108 13.1485 19.8121 13.1407 19.8137 13.1329L19.821 13.0961C19.8259 13.0593 19.8284 13.0225 19.8284 12.9857V7.00204C19.8235 6.97748 19.8207 6.9529 19.818 6.92835C19.8167 6.91609 19.8153 6.90383 19.8137 6.89159C19.8137 6.89158 19.8137 6.89158 19.8137 6.89157L19.8063 6.85477C19.8048 6.8471 19.8035 6.83968 19.8022 6.83235C19.7994 6.81618 19.7966 6.80049 19.7916 6.78362C19.7906 6.78064 19.7896 6.77775 19.7886 6.77491L19.6914 13.4448ZM10.8448 2.60009V2.6002L10.8467 2.60146V6.53301H10.8462L10.8469 6.53348L14.5054 8.97901L14.5049 8.97976L14.506 8.97901L17.4598 7.00491L17.4595 7.00444L17.4592 7.00398L17.4587 7.00323L10.8478 2.60087V2.59953H10.8473V2.59897H10.8448V2.59953V2.60009ZM10.8467 2.60009V2.60012L10.8466 2.60009H10.8467ZM9.15582 6.53348L9.15607 6.53385V6.53301V2.59953H9.15551L9.1552 2.59907L2.54292 7.00398L2.54323 7.00444L2.54354 7.00491L2.54404 7.00565L5.49672 8.97901L5.49622 8.97976L5.49734 8.97901L9.15582 6.53348ZM1.86556 8.58078L1.86524 8.58125L1.865 8.58162V11.4044H1.86556H1.86611H1.86656L3.97747 9.99308L3.97716 9.99261L3.97685 9.99215L3.97635 9.9914L1.86587 8.58032L1.86556 8.58078ZM2.54323 12.9783L2.54354 12.9788L2.54404 12.9795L9.1552 17.3837L9.15551 17.3832H9.15607V13.4498H9.15652L9.15582 13.4493L5.49734 11.0038L5.49784 11.003L5.49672 11.0038L2.54292 12.9779L2.54323 12.9783ZM9.99984 11.9868L9.99934 11.9876L10.0005 11.9868L12.9862 9.99062L12.9859 9.99016L12.9856 9.98969L12.9851 9.98895L10.0005 7.99594L10.001 7.99519L9.99984 7.99594L7.01413 9.99215L7.01444 9.99261L7.01475 9.99308L7.01525 9.99382L9.99984 11.9868ZM10.8445 13.4493L10.8442 13.4489V13.4498V17.3832H10.8448L10.8451 17.3837L17.4574 12.9788L17.4571 12.9783L17.4568 12.9779L17.4563 12.9771L14.5036 11.0038L14.5041 11.003L14.503 11.0038L10.8445 13.4493ZM18.1348 11.402L18.1351 11.4015L18.1353 11.4012V8.57833H18.1348H18.1342H18.1337L16.0228 9.98969L16.0231 9.99016L16.0235 9.99062L16.024 9.99137L18.1344 11.4025L18.1348 11.402Z" fill="#2188FF" stroke="#2188FF" stroke-width="0.00111607"/>
</svg>
